Patient4_TMGait_0pt6_01_left_39_GRF.mot
version=1
nRows=39
nColumns=19
inDegrees=no
endheader
time	F1x	F1y	F1z	M1x	M1y	M1z	F2x	F2y	F2z	M2x	M2y	M2z	EC1x	EC1y	EC1z	EC2x	EC2y	EC2z
47.48	-10.3438	5.8672	-6.9504	-0.44197	0.92232	5.525	-36.2372	749.0219	-65.916	307.9042	83.3583	780.0696	-0.0592	0.0182	-0.0073	-0.0462	0.0165	0.9585
47.4921	-7.0546	4.6279	-4.596	-0.52434	0.44041	4.402	-36.9114	732.426	-62.1341	300.8284	79.122	761.829	-0.0592	0.0182	-0.0073	-0.0462	0.0165	0.9585
47.5043	-4.2888	3.6155	-2.6168	-0.60743	0.053055	3.4942	-36.5819	715.441	-58.7248	293.4931	74.8729	742.3341	-0.0592	0.0182	-0.0073	-0.0462	0.0165	0.9585
47.5164	-2.1956	2.8866	-1.12	-0.68616	-0.23002	2.845	-35.3237	699.6006	-55.8775	286.5742	70.8719	723.1516	-0.0592	0.0182	-0.0073	-0.0462	0.0165	0.9585
47.5286	-0.76102	2.4388	-0.10207	-0.76063	-0.41366	2.4576	-33.3592	686.2652	-53.6655	280.6858	67.2918	705.7318	-0.0592	0.0182	-0.0073	-0.0462	0.0165	0.9585
47.5407	0.10681	2.2156	0.51191	-0.8268	-0.51927	2.2881	-30.937	676.5636	-52.0314	276.3436	64.1653	691.295	-0.0592	0.0182	-0.0073	-0.0462	0.0165	0.9585
47.5529	0.53486	2.1445	0.82377	-0.87963	-0.57432	2.2751	-28.2483	671.3259	-50.8616	273.9296	61.4422	680.7282	-0.0592	0.0182	-0.0073	-0.0462	0.0165	0.9585
47.565	0.64537	2.1478	0.93693	-0.91006	-0.61142	2.333	-25.3882	671.1005	-49.99	273.6967	58.9873	674.5919	-0.0592	0.0182	-0.0073	-0.0462	0.0165	0.9585
47.5771	0.5361	2.1376	0.93987	-0.90061	-0.66109	2.359	-22.3601	676.2006	-49.2739	275.7818	56.6478	673.19	-0.0592	0.0182	-0.0073	-0.0462	0.0165	0.9585
47.5893	0.27834	2.0285	0.89737	-0.83528	-0.74354	2.254	-19.0804	686.6228	-48.5845	280.1813	54.2508	676.5065	-0.0592	0.0182	-0.0073	-0.0462	0.0165	0.9585
47.6014	-0.061291	1.7149	0.8588	-0.68956	-0.87025	1.9105	-15.4552	701.9631	-47.8632	286.7123	51.6848	684.16	-0.0592	0.0182	-0.0073	-0.0462	0.0165	0.9585
47.6136	-0.4484	1.0963	0.84696	-0.43535	-1.0367	1.2241	-11.4222	721.3181	-47.1021	294.9727	48.9065	695.3146	-0.0592	0.0182	-0.0073	-0.0462	0.0165	0.9585
47.6257	-0.8272	0.090475	0.87327	-0.046493	-1.226	0.094095	-7.0372	743.1818	-46.3631	304.2954	45.978	708.6184	-0.0592	0.0182	-0.0073	-0.0462	0.0165	0.9585
47.6379	-1.1424	-1.36	0.92577	0.49528	-1.4008	-1.5347	-2.4086	765.3989	-45.8104	313.7317	43.0845	722.1702	-0.0592	0.0182	-0.0073	-0.0462	0.0165	0.9585
47.65	-1.2989	-3.2353	0.97707	1.1813	-1.4982	-3.6481	2.28	785.5013	-45.6205	322.2008	40.4531	733.8398	-0.0592	0.0182	-0.0073	-0.0462	0.0165	0.9585
47.6621	-1.1756	-5.3792	0.97211	1.955	-1.4178	-6.0627	6.8432	801.2171	-45.9221	328.719	38.2705	741.6916	-0.0592	0.0182	-0.0073	-0.0462	0.0165	0.9585
47.6743	-0.58434	-7.456	0.84018	2.6937	-1.0186	-8.4068	11.1189	810.9206	-46.7519	332.5888	36.6411	744.3898	-0.0592	0.0182	-0.0073	-0.0462	0.0165	0.9585
47.6864	0.67988	-8.8637	0.48272	3.176	-0.11858	-10.0088	14.9894	813.7865	-48.0573	333.4755	35.5774	741.2969	-0.0592	0.0182	-0.0073	-0.0462	0.0165	0.9585
47.6986	2.8558	-8.6572	-0.19594	3.0526	1.473	-9.8249	18.3997	809.771	-49.7096	331.393	35.0058	732.4441	-0.0592	0.0182	-0.0073	-0.0462	0.0165	0.9585
47.7107	6.1342	-5.5056	-1.2948	1.8294	3.9304	-6.3776	21.3855	799.42	-51.5421	326.6162	34.789	718.3445	-0.0592	0.0182	-0.0073	-0.0462	0.0165	0.9585
47.7229	10.5924	2.2974	-2.8735	-1.1246	7.3398	2.217	24.054	783.6144	-53.3611	319.569	34.7334	699.7746	-0.0592	0.0182	-0.0073	-0.0462	0.0165	0.9585
47.735	16.0647	16.6932	-4.9206	-6.5272	11.619	18.0926	26.5573	763.323	-54.967	310.7115	34.6193	677.5746	-0.0592	0.0182	-0.0073	-0.0462	0.0165	0.9585
47.7471	21.9828	39.5679	-7.2868	-15.07	16.3865	43.3328	29.0254	739.3867	-56.1526	300.4444	34.2262	652.4906	-0.0592	0.0182	-0.0073	-0.0462	0.0165	0.9585
47.7593	27.1821	72.2109	-9.6218	-27.212	20.8151	79.3711	31.5112	712.3934	-56.7025	289.0533	33.358	625.0725	-0.0592	0.0182	-0.0073	-0.0462	0.0165	0.9585
47.7714	29.8348	114.629	-11.3005	-42.9248	23.5386	126.2554	33.9727	682.6543	-56.4063	276.695	31.8661	595.6468	-0.0592	0.0182	-0.0073	-0.0462	0.0165	0.9585
47.7836	28.1561	165.2703	-11.502	-61.5849	23.0044	182.3148	36.271	650.2265	-55.0901	263.4083	29.6699	564.3313	-0.0592	0.0182	-0.0073	-0.0462	0.0165	0.9585
47.7957	21.8551	221.3245	-9.3819	-82.0811	18.1931	244.4591	38.2193	615.0171	-52.6666	249.152	26.7814	531.1145	-0.0592	0.0182	-0.0073	-0.0462	0.0165	0.9585
47.8079	12.8065	279.0701	-4.4119	-102.99	9.233	308.4132	39.6279	576.8941	-49.1962	233.8478	23.3336	495.9409	-0.0592	0.0182	-0.0073	-0.0462	0.0165	0.9585
47.82	2.9263	334.8663	3.0257	-123.0014	-2.7045	369.8208	40.3597	535.7775	-44.8874	217.4231	19.5585	458.7556	-0.0592	0.0182	-0.0073	-0.0462	0.0165	0.9585
47.8321	-6.3908	386.6734	11.8011	-141.4487	-15.8076	426.1397	40.3253	491.739	-40.0277	199.8572	15.7194	419.6057	-0.0592	0.0182	-0.0073	-0.0462	0.0165	0.9585
47.8443	-14.4086	434.1058	20.5443	-158.2919	-28.2679	476.8549	39.5054	445.0516	-34.9131	181.2135	12.0504	378.6854	-0.0592	0.0182	-0.0073	-0.0462	0.0165	0.9585
47.8564	-20.7712	477.433	28.3141	-173.7242	-38.9085	522.2267	37.8702	396.1953	-29.7823	161.6486	8.7324	336.3604	-0.0592	0.0182	-0.0073	-0.0462	0.0165	0.9585
47.8686	-25.5152	517.2199	34.4751	-188.0099	-47.0558	562.9196	35.4153	345.9269	-24.8008	141.4446	5.8766	293.2173	-0.0592	0.0182	-0.0073	-0.0462	0.0165	0.9585
47.8807	-28.6457	554.0339	38.8235	-201.3827	-52.5209	599.5568	32.1399	295.3475	-20.078	121.034	3.5456	250.1224	-0.0592	0.0182	-0.0073	-0.0462	0.0165	0.9585
47.8929	-30.3736	588.517	41.4933	-214.0582	-55.5531	632.9317	28.1199	245.8722	-15.7295	100.9877	1.7812	208.1863	-0.0592	0.0182	-0.0073	-0.0462	0.0165	0.9585
47.905	-30.8599	621.2529	42.8904	-226.2082	-56.6832	663.7481	23.564	199.0995	-11.8878	81.9582	0.59479	168.6764	-0.0592	0.0182	-0.0073	-0.0462	0.0165	0.9585
47.9171	-30.3623	652.6137	43.5113	-237.9056	-56.5622	692.5658	18.8041	156.5282	-8.6562	64.5663	-0.067555	132.7884	-0.0592	0.0182	-0.0073	-0.0462	0.0165	0.9585
47.9293	-29.1304	682.4549	43.8453	-249.0413	-55.8286	719.3129	14.2377	119.2234	-6.0699	49.268	-0.32957	101.353	-0.0592	0.0182	-0.0073	-0.0462	0.0165	0.9585
47.9414	-27.497	710.2336	44.316	-259.3657	-55.0634	743.5476	10.1626	87.6839	-4.0945	36.29	-0.32939	74.7641	-0.0592	0.0182	-0.0073	-0.0462	0.0165	0.9585
